<svg id="Layer_2" data-name="Layer 2" xmlns="http://www.w3.org/2000/svg" viewBox="0 0 97.86 87.92"><defs><style>.cls-1{fill:#ffeb5c;}.cls-2{fill:#edc82e;}.cls-3{fill:#fffae9;}.cls-4{fill:#e8cf42;}.cls-5{fill:#958e9e;}.cls-6{fill:#c7c5c8;}.cls-7{fill:#888391;}.cls-8{fill:#3d3b44;}.cls-9{fill:#1d1d21;}.cls-10{fill:#2d2c30;}.cls-11{fill:#fff5cc;}.cls-12{fill:#514d59;}</style></defs><path class="cls-1" d="M216.56,71.85c-15.22,22.7-46.23,28.58-69.27,13.13A50.44,50.44,0,0,1,128,60.59a50.46,50.46,0,0,0,5.5,4.26c23,15.45,54.05,9.57,69.27-13.13a49.21,49.21,0,0,0,5.14-44.67C226.36,23.43,230.48,51.09,216.56,71.85Z" transform="translate(-127.27 -6)"/><path class="cls-2" d="M175.49,93.92A51.32,51.32,0,0,1,127.7,60.7l-.43-1.16.93.82a52.34,52.34,0,0,0,5.48,4.24c22.86,15.32,53.73,9.47,68.83-13a49.15,49.15,0,0,0,5.11-44.39L207.15,6l.93.82a50.7,50.7,0,0,1,16.57,31,49.28,49.28,0,0,1-39.76,55.26A51.11,51.11,0,0,1,175.49,93.92ZM128.73,61.64A50.51,50.51,0,0,0,184.8,92.42a48.49,48.49,0,0,0,31.5-20.74h0c13.37-19.94,10-47-7.68-63.56a50.58,50.58,0,0,1,2.47,21.6A49.62,49.62,0,0,1,203,51.9a49.06,49.06,0,0,1-14.1,13.88,49.82,49.82,0,0,1-17.78,7.12,50.43,50.43,0,0,1-19.28-.09,51.89,51.89,0,0,1-23.14-11.17Z" transform="translate(-127.27 -6)"/><path class="cls-3" d="M128.57,61.41a15.31,15.31,0,0,0,.87,2c.13.25.35.77.62,1.36.19.43.32.62.37.74a34.85,34.85,0,0,0,2.47,4.21c.53.87.46.78.75,1.24a27.93,27.93,0,0,0,1.86,2.6,53.8,53.8,0,0,0,4.7,5.2c.45.43,1.52,1.43,3,2.6.33.27,1.87,1.5,4.09,3A64.82,64.82,0,0,0,153,87.7c.85.44,2.55,1.32,4.46,2.11a44.59,44.59,0,0,0,12,2.84,46.16,46.16,0,0,0,8.55.5,44.4,44.4,0,0,0,9.78-1.61,58.06,58.06,0,0,0,10.28-3.84s11.25-5.73,18.2-16.22c.45-.68.87-1.37.87-1.37a47.58,47.58,0,0,0,4-8.29,48.47,48.47,0,0,0,3-12.67A50,50,0,0,0,223.9,38a51.53,51.53,0,0,0-4-14.25A49.64,49.64,0,0,0,208.58,7.91,76.78,76.78,0,0,1,215,16.46c.94,1.4,1.8,2.84,2.6,4.33a46.71,46.71,0,0,1,4.21,11.77,52.24,52.24,0,0,1,1.11,6.81,51.13,51.13,0,0,1,.13,6.19,50.67,50.67,0,0,1-3.35,15.36A46.84,46.84,0,0,1,209.07,76.4a57.7,57.7,0,0,1-12.14,9.29,40.31,40.31,0,0,1-9.41,4.21,38.28,38.28,0,0,1-9.91,1.49,46.06,46.06,0,0,1-8.29-.75,55.94,55.94,0,0,1-11-2.47,40.39,40.39,0,0,1-9.9-4.83,48.7,48.7,0,0,1-9.54-7.68c-2.24-2.37-4.11-4.57-5.33-6.07" transform="translate(-127.27 -6)"/><ellipse class="cls-4" cx="35.36" cy="72.63" rx="9.04" ry="5.33"/><ellipse class="cls-4" cx="174.78" cy="77.95" rx="5.33" ry="9.04" transform="translate(-82.09 212.76) rotate(-71.41)"/><ellipse class="cls-4" cx="183.07" cy="83.27" rx="9.04" ry="5.33" transform="translate(-129.68 -0.47) rotate(-1.72)"/><ellipse class="cls-4" cx="190.27" cy="77.36" rx="12.48" ry="7.4" transform="translate(-135.5 124.12) rotate(-37.01)"/><path class="cls-4" d="M200.77,75.41a20,20,0,0,0-1.36-16.35l-2.1,14.24Z" transform="translate(-127.27 -6)"/><ellipse class="cls-5" cx="31.77" cy="23.71" rx="9.41" ry="8.67"/><path class="cls-5" d="M159,39c-5.53,0-10-4.17-10-9.29s4.5-9.29,10-9.29,10,4.17,10,9.29S164.57,39,159,39Zm0-17.34c-4.85,0-8.8,3.61-8.8,8.05s3.95,8,8.8,8,8.79-3.61,8.79-8S163.89,21.66,159,21.66Z" transform="translate(-127.27 -6)"/><circle class="cls-5" cx="24.03" cy="27.61" r="1.92"/><path class="cls-5" d="M151.3,36.15a2.54,2.54,0,1,1,2.54-2.54h0A2.54,2.54,0,0,1,151.3,36.15Zm0-3.84a1.3,1.3,0,1,0,1.3,1.3,1.3,1.3,0,0,0-1.3-1.3h0Z" transform="translate(-127.27 -6)"/><circle class="cls-5" cx="26.13" cy="29.96" r="1.92"/><path class="cls-5" d="M153.4,38.5A2.54,2.54,0,1,1,155.94,36h0A2.54,2.54,0,0,1,153.4,38.5Zm0-3.84a1.3,1.3,0,1,0,1.3,1.3,1.3,1.3,0,0,0-1.3-1.3Z" transform="translate(-127.27 -6)"/><circle class="cls-5" cx="28.98" cy="31.7" r="1.92"/><path class="cls-5" d="M156.25,40.24a2.54,2.54,0,1,1,2.54-2.54h0A2.54,2.54,0,0,1,156.25,40.24Zm0-3.84a1.3,1.3,0,1,0,1.3,1.3,1.3,1.3,0,0,0-1.3-1.3Z" transform="translate(-127.27 -6)"/><circle class="cls-5" cx="23.16" cy="24.39" r="1.92"/><path class="cls-5" d="M150.43,32.93A2.54,2.54,0,1,1,153,30.39h0A2.54,2.54,0,0,1,150.43,32.93Zm0-3.84a1.3,1.3,0,1,0,1.3,1.3,1.3,1.3,0,0,0-1.3-1.3Z" transform="translate(-127.27 -6)"/><circle class="cls-5" cx="23.65" cy="22.41" r="1.92"/><path class="cls-5" d="M150.92,31a2.54,2.54,0,1,1,2.54-2.54h0A2.54,2.54,0,0,1,150.92,31Zm0-3.84a1.3,1.3,0,0,0,0,2.6,1.3,1.3,0,0,0,0-2.6Z" transform="translate(-127.27 -6)"/><ellipse class="cls-5" cx="186.54" cy="27.11" rx="9.41" ry="8.67" transform="translate(-128.88 32.56) rotate(-11.75)"/><path class="cls-5" d="M186.21,36.43A10.24,10.24,0,0,1,181,35a8.82,8.82,0,0,1-3.23-12.06,9.33,9.33,0,0,1,.55-.84,10.64,10.64,0,0,1,13.88-2.88,8.83,8.83,0,0,1,3.23,12.06,9.33,9.33,0,0,1-.55.84,10.76,10.76,0,0,1-8.6,4.31Zm.66-17.4a9,9,0,0,0-2,.2,9.12,9.12,0,0,0-5.62,3.6,7.64,7.64,0,0,0-1.35,6.07h0a7.68,7.68,0,0,0,3.66,5,9.39,9.39,0,0,0,12.21-2.54,7.57,7.57,0,0,0-1.57-10.59,7.92,7.92,0,0,0-.71-.47A8.88,8.88,0,0,0,186.87,19Z" transform="translate(-127.27 -6)"/><circle class="cls-5" cx="67.64" cy="23.35" r="1.92"/><path class="cls-5" d="M194.91,31.89a2.52,2.52,0,0,1-2.48-2h0a2.54,2.54,0,1,1,4.61.88,2.59,2.59,0,0,1-1.61,1.09A3.05,3.05,0,0,1,194.91,31.89Zm-1.27-2.27a1.29,1.29,0,1,0,.18-1,1.31,1.31,0,0,0-.18,1Z" transform="translate(-127.27 -6)"/><circle class="cls-5" cx="66.06" cy="26.09" r="1.92"/><path class="cls-5" d="M193.33,34.63a2.61,2.61,0,0,1-1.39-.42,2.49,2.49,0,0,1-1.09-1.61,2.54,2.54,0,0,1,2-3,2.54,2.54,0,0,1,1,5A2.31,2.31,0,0,1,193.33,34.63Zm0-3.84h-.26a1.29,1.29,0,0,0-1,1.54,1.3,1.3,0,0,0,1.54,1h0a1.3,1.3,0,0,0,1-1.56,1.29,1.29,0,0,0-1.27-1Z" transform="translate(-127.27 -6)"/><circle class="cls-5" cx="63.63" cy="28.36" r="1.92"/><path class="cls-5" d="M190.89,36.9a2.34,2.34,0,1,1,.52,0A2.26,2.26,0,0,1,190.89,36.9Zm0-3.84h-.27a1.32,1.32,0,0,0-1,1.56h0a1.28,1.28,0,0,0,.56.82,1.35,1.35,0,0,0,1,.19,1.29,1.29,0,0,0,.42-2.36,1.26,1.26,0,0,0-.68-.2Z" transform="translate(-127.27 -6)"/><circle class="cls-5" cx="67.84" cy="20.03" r="1.92"/><path class="cls-5" d="M195.15,28.56A2.52,2.52,0,0,1,193,24.65a2.56,2.56,0,0,1,1.61-1.09,2.53,2.53,0,0,1,1,5h0A2,2,0,0,1,195.15,28.56Zm0-3.84h-.27a1.26,1.26,0,0,0-.82.56,1.29,1.29,0,0,0,.34,1.8,1.34,1.34,0,0,0,1,.2,1.31,1.31,0,0,0,.82-.56,1.36,1.36,0,0,0,.19-1,1.26,1.26,0,0,0-.56-.82A1.28,1.28,0,0,0,195.15,24.72Z" transform="translate(-127.27 -6)"/><circle class="cls-5" cx="66.95" cy="18.19" r="1.92"/><path class="cls-5" d="M194.21,26.73a2.57,2.57,0,0,1-2.48-2h0a2.54,2.54,0,0,1,2-3,2.58,2.58,0,0,1,1.91.37,2.5,2.5,0,0,1,1.09,1.61,2.53,2.53,0,0,1-2,3h0A2,2,0,0,1,194.21,26.73Zm-1.27-2.28a1.3,1.3,0,1,0,1-1.55,1.31,1.31,0,0,0-1,1.55Z" transform="translate(-127.27 -6)"/><path class="cls-6" d="M162.15,26.57a3.55,3.55,0,0,1,.84,2.29c-.08,1.66-2.21,4.45-3.43,5.25-2,1.28-4.36.68-6-1.64A4.94,4.94,0,0,1,155,25.65,5.25,5.25,0,0,1,162.15,26.57Z" transform="translate(-127.27 -6)"/><path class="cls-6" d="M157.38,35.4A5.42,5.42,0,0,1,153,32.82a5.19,5.19,0,0,1-.8-4.1,5.79,5.79,0,0,1,2.4-3.58,6.27,6.27,0,0,1,4.29-1.06,5.21,5.21,0,0,1,3.7,2.14h0a4.22,4.22,0,0,1,.95,2.66c-.09,1.89-2.31,4.83-3.71,5.75A4.59,4.59,0,0,1,157.38,35.4Zm.77-10.1a4.86,4.86,0,0,0-2.83.88,4.51,4.51,0,0,0-1.9,2.82,4,4,0,0,0,.61,3.13c1.41,2,3.42,2.6,5.13,1.49,1.11-.73,3.08-3.36,3.15-4.77a3,3,0,0,0-.73-1.91h0A4.15,4.15,0,0,0,158.15,25.3Z" transform="translate(-127.27 -6)"/><path class="cls-6" d="M183.06,24.1a3.49,3.49,0,0,0-.83,2.29c.08,1.66,2.2,4.46,3.43,5.26,2,1.28,4.35.68,6-1.65a4.92,4.92,0,0,0-1.5-6.81h0A5.17,5.17,0,0,0,183.06,24.1Z" transform="translate(-127.27 -6)"/><path class="cls-6" d="M187.8,32.93a4.54,4.54,0,0,1-2.48-.77c-1.4-.91-3.62-3.85-3.71-5.74a4.05,4.05,0,0,1,.94-2.67h0a5.2,5.2,0,0,1,3.7-2.13,6.21,6.21,0,0,1,4.3,1.06,5.56,5.56,0,0,1,1.6,7.67A5.37,5.37,0,0,1,187.8,32.93ZM187,22.81a3,3,0,0,0-.6,0,4,4,0,0,0-2.83,1.61h0a3,3,0,0,0-.73,1.9c.07,1.41,2,4,3.16,4.77,1.7,1.12,3.72.54,5.13-1.48a4.33,4.33,0,0,0-1.28-6h0a5,5,0,0,0-2.84-.8Z" transform="translate(-127.27 -6)"/><ellipse class="cls-5" cx="53.94" cy="59.69" rx="18.7" ry="15.91"/><path class="cls-5" d="M181.21,82.22c-10.66,0-19.32-7.42-19.32-16.53s8.66-16.54,19.32-16.54,19.32,7.42,19.32,16.54S191.86,82.22,181.21,82.22Zm0-31.83c-10,0-18.09,6.86-18.09,15.3S171.24,81,181.21,81s18.08-6.86,18.08-15.29S191.15,50.39,181.21,50.39Z" transform="translate(-127.27 -6)"/><path class="cls-5" d="M190.49,43.3a16.77,16.77,0,0,0,0,3.47c.13,1.37.87,3.22,3.35,5.82-.44.62-1.06.85-2.23,1.36-2.73,1.19-7,.2-8.18-3a5.75,5.75,0,0,1,1.72-6C186.48,43.8,190.68,42.21,190.49,43.3Z" transform="translate(-127.27 -6)"/><path class="cls-5" d="M162.15,66.12c-2,.47-3.64,3.94-5.69,8.17-.62,1.28-1.07,2.36-1.37,3.1l3.84,4.34a18.4,18.4,0,0,0,13.5-3.6C169.15,70.48,164.87,65.47,162.15,66.12Z" transform="translate(-127.27 -6)"/><path class="cls-5" d="M180.49,68c-1.84.79-2.92,4.5-4.22,9-.4,1.36-.66,2.5-.82,3.28L180,83.93a18.38,18.38,0,0,0,12.69-5.83C188.15,71.14,183.08,66.92,180.49,68Z" transform="translate(-127.27 -6)"/><path class="cls-5" d="M179.76,84.58l-5-4,.07-.37c.24-1.12.52-2.24.83-3.33,1.38-4.76,2.46-8.51,4.58-9.42h0c1.49-.64,3.56.09,6,2.11a37.52,37.52,0,0,1,6.91,8.21l.27.41-.33.36a19.24,19.24,0,0,1-6.86,4.68A19,19,0,0,1,180,84.57Zm-3.61-4.49,4,3.21a17.61,17.61,0,0,0,5.63-1.24,18.12,18.12,0,0,0,6.07-4c-4.79-7.19-9.29-10.24-11.13-9.45-1.58.67-2.7,4.53-3.88,8.62C176.59,78.17,176.35,79.13,176.15,80.09Z" transform="translate(-127.27 -6)"/><ellipse class="cls-7" cx="157.61" cy="76.2" rx="3.78" ry="5.88" transform="translate(-142.62 43.14) rotate(-16.91)"/><ellipse class="cls-7" cx="178.86" cy="79" rx="3.78" ry="5.88" transform="translate(-137.94 24.94) rotate(-9.6)"/><path class="cls-8" d="M158.36,70.76a12,12,0,0,1,1.36-2.22,30.28,30.28,0,0,1,3-3.1" transform="translate(-127.27 -6)"/><path class="cls-8" d="M158.64,70.89l-.57-.25a13.36,13.36,0,0,1,1.4-2.29,27.89,27.89,0,0,1,2.81-2.94l.2-.19.42.44-.2.19A29.81,29.81,0,0,0,160,68.73,13.28,13.28,0,0,0,158.64,70.89Z" transform="translate(-127.27 -6)"/><path class="cls-8" d="M159.31,82.22h-.23V81.6c.39,0,1.29,0,2.08-.08H162a17.42,17.42,0,0,0,5.11-.85,14.35,14.35,0,0,0,3.52-1.82l.35.51a15,15,0,0,1-3.67,1.89,17.93,17.93,0,0,1-5.28.89h-.86C160.51,82.18,159.77,82.22,159.31,82.22Z" transform="translate(-127.27 -6)"/><path class="cls-8" d="M175.49,81.72c-.67-.18-1.34-.39-2-.63a10.15,10.15,0,0,1-2.42-1.15c-.65-.45-1.2-2.83-1.5-3.42l.75,1.49a3.4,3.4,0,0,0,1.1,1.42,9.6,9.6,0,0,0,2.29,1.08c.63.23,1.29.44,1.95.61Z" transform="translate(-127.27 -6)"/><path class="cls-8" d="M180.8,84.82l-.06-.62a21,21,0,0,0,2.93-.48,19.19,19.19,0,0,0,4.48-1.83l.42-.23a29,29,0,0,0,4.37-3.09,12.92,12.92,0,0,0,2.41-2.14c.09-.11.19-.21.29-.31a15.89,15.89,0,0,0,3.4-4.61,14.72,14.72,0,0,0,1.21-5.7,14.57,14.57,0,0,0-.73-4.73,16.86,16.86,0,0,0-2.18-4.37,23.86,23.86,0,0,0-4-3.91A6.81,6.81,0,0,1,191.91,51a10.51,10.51,0,0,1-.93-2.15l-.09-.26A15.51,15.51,0,0,1,190,43l.6.13a15.59,15.59,0,0,0,.86,5.28.54.54,0,0,0,.09.27,9.15,9.15,0,0,0,.88,2,6.05,6.05,0,0,0,1.28,1.66,25.21,25.21,0,0,1,4.13,4,17,17,0,0,1,2.29,4.58,15.25,15.25,0,0,1,.76,4.93,15.6,15.6,0,0,1-1.27,5.94,16,16,0,0,1-3.49,4.81,2,2,0,0,0-.24.26,13.37,13.37,0,0,1-2.51,2.24,29.44,29.44,0,0,1-4.46,3.15l-.41.22a20,20,0,0,1-4.71,1.87A24.14,24.14,0,0,1,180.8,84.82Z" transform="translate(-127.27 -6)"/><path class="cls-6" d="M183.06,60.8c0,5.81-4.22,9.53-8.67,9.53s-8-4.22-8-10,3.49-10.16,7.93-10.28c2.85-.08-.91-2.15,6.81,1.49C181.63,51.76,183.06,58.1,183.06,60.8Z" transform="translate(-127.27 -6)"/><path class="cls-6" d="M174.39,71a8,8,0,0,1-6.17-3.06,12,12,0,0,1-2.5-7.59c0-6.08,3.67-10.77,8.53-10.9.69,0,.79-.14.87-.24.43-.52.91-.49,1.61-.26s2,.79,4.62,2c.24.11.69.33,1.53,4.15a32.2,32.2,0,0,1,.8,5.7C183.68,67.15,179,71,174.39,71ZM176,50a2.09,2.09,0,0,1-1.75.65c-4.18.11-7.33,4.26-7.33,9.66s3.2,9.41,7.43,9.41c4,0,8-3.33,8-8.91A32.49,32.49,0,0,0,180.66,52,41,41,0,0,0,176,50Z" transform="translate(-127.27 -6)"/><path class="cls-5" d="M190.49,38.44c0,7-6.22,12.78-14.33,13.78,4.84-1.19,8.21-3.88,8.21-7,0-4.24-6.18-7.67-13.8-7.67-6,0-11.08,2.12-13,5.08a11.73,11.73,0,0,1-.77-4.18c0-7.69,7.54-13.93,16.84-13.93S190.49,30.75,190.49,38.44Z" transform="translate(-127.27 -6)"/><path class="cls-5" d="M176.24,52.83,176,51.62c4.7-1.16,7.74-3.68,7.74-6.41,0-1.82-1.32-3.55-3.72-4.88a19.82,19.82,0,0,0-9.46-2.17C165,38.16,160,40.08,158.1,43l-.66,1L157,42.81a12.29,12.29,0,0,1-.81-4.4c0-8,7.83-14.55,17.46-14.55s17.5,6.56,17.5,14.58A13.28,13.28,0,0,1,186.84,48,18.68,18.68,0,0,1,176.24,52.83Zm-5.67-15.91a21.07,21.07,0,0,1,10.06,2.32c2.81,1.57,4.36,3.68,4.36,6a5.84,5.84,0,0,1-1.7,3.92c4-2.46,6.58-6.38,6.58-10.69,0-7.34-7.27-13.31-16.22-13.31s-16.22,6-16.22,13.31a11.22,11.22,0,0,0,.38,2.88C160.26,38.65,165.15,36.92,170.57,36.92Z" transform="translate(-127.27 -6)"/><path class="cls-5" d="M184.37,45.21c0,3.13-3.37,5.82-8.21,7a21.13,21.13,0,0,1-2.51.15c-7.54,0-13.93-4.1-16.07-9.75,1.91-3,7-5.08,13-5.08C178.15,37.54,184.37,41,184.37,45.21Z" transform="translate(-127.27 -6)"/><path class="cls-5" d="M173.65,53a19.74,19.74,0,0,1-10.38-2.85A15,15,0,0,1,157,42.83l-.11-.29.17-.26c2.07-3.21,7.5-5.36,13.51-5.36a21.07,21.07,0,0,1,10.06,2.32c2.81,1.57,4.36,3.68,4.36,6,0,3.32-3.41,6.31-8.68,7.61h-.07A20.44,20.44,0,0,1,173.65,53Zm-15.37-10.3c2.22,5.44,8.35,9.06,15.37,9.06a19.32,19.32,0,0,0,2.4-.14c4.68-1.16,7.7-3.67,7.7-6.4,0-1.82-1.32-3.55-3.72-4.88a19.82,19.82,0,0,0-9.46-2.17C165.15,38.16,160.25,40,158.28,42.69Z" transform="translate(-127.27 -6)"/><path class="cls-5" d="M176.15,52.22a23.4,23.4,0,0,1-5.59.65c-7.62,0-13.8-3.43-13.8-7.66a4.67,4.67,0,0,1,.81-2.59c2.14,5.65,8.53,9.75,16.07,9.75A21.13,21.13,0,0,0,176.15,52.22Z" transform="translate(-127.27 -6)"/><path class="cls-5" d="M170.57,53.49a21.16,21.16,0,0,1-10.06-2.32c-2.81-1.56-4.36-3.68-4.36-6a5.36,5.36,0,0,1,.91-2.93l.66-1,.43,1.16c2.12,5.59,8.35,9.35,15.49,9.35a19.81,19.81,0,0,0,2.43-.15l.23,1.22A24.06,24.06,0,0,1,170.57,53.49Zm-13-9.4a3.85,3.85,0,0,0-.17,1.12c0,1.81,1.32,3.54,3.72,4.88a18.18,18.18,0,0,0,6.36,2,18.35,18.35,0,0,1-4.2-1.92,15.42,15.42,0,0,1-5.72-6.08Z" transform="translate(-127.27 -6)"/><ellipse class="cls-9" cx="169.38" cy="42.01" rx="1.92" ry="3.9" transform="translate(-128.89 1.19) rotate(-2.42)"/><path class="cls-10" d="M158.05,39.12h0a3.06,3.06,0,0,1,1.54-1.82,4.78,4.78,0,0,1,2.67-.28,3.76,3.76,0,0,1,2.1,1l-.12.74a5.43,5.43,0,0,0-2.09-.76,4.82,4.82,0,0,0-2.07,0A3.58,3.58,0,0,0,158.05,39.12Z" transform="translate(-127.27 -6)"/><path class="cls-10" d="M182.57,38.63h0a3.43,3.43,0,0,0-1.9-1.82,7.07,7.07,0,0,0-3.26-.28,5,5,0,0,0-2.58,1l.15.74a7.73,7.73,0,0,1,2.62-.75,7.22,7.22,0,0,1,2.54,0A4.72,4.72,0,0,1,182.57,38.63Z" transform="translate(-127.27 -6)"/><path class="cls-8" d="M163.62,26.61a11.69,11.69,0,0,1,3.27-2,10.46,10.46,0,0,1,1.37-.45l.17.6c-.43.13-.87.27-1.32.43A36.43,36.43,0,0,0,163.62,26.61Z" transform="translate(-127.27 -6)"/><path class="cls-8" d="M182.44,25.87c-1-.25-1.23-.37-2.72-.74-.85-.22-1.6-.35-2.43-.56L177,24.5l.15-.6.31.07a21.2,21.2,0,0,1,2.32.68,13.33,13.33,0,0,1,2.44,1.1Z" transform="translate(-127.27 -6)"/><path class="cls-8" d="M170.42,53.88a24.12,24.12,0,0,1-2.69-.15,20,20,0,0,1-4.27-.88,15.67,15.67,0,0,1-3.41-1.55,9.71,9.71,0,0,1-3.19-2.82,6.16,6.16,0,0,1-.78-1.56,5.35,5.35,0,0,1-.26-2.1,5.53,5.53,0,0,1,.39-1.71c.1-.23.21-.46.33-.68v-.19c-.11-.46-.24-.9-.39-1.34a1.65,1.65,0,0,1-.11-.36v0a2.34,2.34,0,0,1-1.83-.85,3,3,0,0,1-.41-.54c-.07-.11-.12-.21-.18-.32a2.71,2.71,0,0,1-2.39-1,2.1,2.1,0,0,1-.57-1,2,2,0,0,1,0-.35h-.21a2.05,2.05,0,0,1-1-.57,3,3,0,0,1-1-1.52,2.68,2.68,0,0,1,0-1.26,2.18,2.18,0,0,1,.16-.45,2.88,2.88,0,0,1-1-1.64,2.73,2.73,0,0,1,.14-1.67,2.29,2.29,0,0,1,.33-.59,2.31,2.31,0,0,1,0-.83,2.87,2.87,0,0,1,.77-1.6,2.84,2.84,0,0,1,.47-.37,10.24,10.24,0,0,1,3.54-4.12A10.48,10.48,0,0,1,158.47,20a11.05,11.05,0,0,1,6.75,1.91,9.68,9.68,0,0,1,1.66,1.41,7.59,7.59,0,0,1,.77,1,18.07,18.07,0,0,1,2.42-.56,17.45,17.45,0,0,1,2.39-.25H174a15,15,0,0,1,1.89.12,9.82,9.82,0,0,1,1,.2,10.84,10.84,0,0,1,2.82-3.72,11.23,11.23,0,0,1,3.57-2,11.06,11.06,0,0,1,4.71-.51,11.34,11.34,0,0,1,2.81.64,8.83,8.83,0,0,1,1.79.9,9.39,9.39,0,0,1,1.59,1.23,12.79,12.79,0,0,1,1,1.08,3.14,3.14,0,0,1,2,2.2v.27a2.72,2.72,0,0,1,.21,3.88,3,3,0,0,1,.38,2.69,2.28,2.28,0,0,1-1.16,1.28,1.86,1.86,0,0,1-.31.1,3.55,3.55,0,0,1-.41,1.75A2.7,2.7,0,0,1,194,34.91h-.27a2.65,2.65,0,0,1-1.6,2.08,2.19,2.19,0,0,1-.75.16c0,.35.06.69.07,1a12.81,12.81,0,0,1-.38,3.43,13.23,13.23,0,0,1-1.51,3.72,14.09,14.09,0,0,1-2.65,3.16,17.52,17.52,0,0,1-5.17,3.28A22.8,22.8,0,0,1,177.88,53a30.76,30.76,0,0,1-6.26.88ZM156.81,34.54l.25-.62a26.9,26.9,0,0,0-.62,3.34,9.45,9.45,0,0,0,.12,3s.11.35.14.46a12,12,0,0,1,.41,1.45.5.5,0,0,0,.06.32v.12l-.07.1a4.83,4.83,0,0,0-.69,2.21,4.77,4.77,0,0,0,.23,1.87,5.25,5.25,0,0,0,.7,1.4,9.06,9.06,0,0,0,3,2.64,15.32,15.32,0,0,0,3.31,1.47,20.27,20.27,0,0,0,4.15.86,24.1,24.1,0,0,0,3.8.12,29.5,29.5,0,0,0,6.13-.86,22.31,22.31,0,0,0,3.79-1.22,17.56,17.56,0,0,0,5-3.16,13.52,13.52,0,0,0,2.54-3,12.4,12.4,0,0,0,1.45-3.51,13.26,13.26,0,0,0,.37-3.26,9.67,9.67,0,0,0-.12-1.32l-.07-.41h.41a1.69,1.69,0,0,0,.83-.1,2.12,2.12,0,0,0,1.22-1.87v-.32h.32a1.48,1.48,0,0,0,.42,0,2.11,2.11,0,0,0,1.38-1,3.11,3.11,0,0,0,.33-1.58v-.4h.28a1.38,1.38,0,0,0,.4-.1,1.64,1.64,0,0,0,.83-.94,2.21,2.21,0,0,0,0-1.52,2.57,2.57,0,0,0-.44-.77l-.2-.23.23-.2a2.09,2.09,0,0,0,.53-2.38,2.24,2.24,0,0,0-.65-.87l-.13-.1V24a1.5,1.5,0,0,0,0-.3c-.11-1-1.31-1.58-1.67-1.74h-.08v-.06a12.79,12.79,0,0,0-1-1.08,7.85,7.85,0,0,0-1.44-1.2,8.43,8.43,0,0,0-1.67-.84,10.42,10.42,0,0,0-2.64-.6,10.17,10.17,0,0,0-7.82,2.4,10.46,10.46,0,0,0-2.79,3.73l-.11.24-.25-.06a8.35,8.35,0,0,0-1.21-.24,13.91,13.91,0,0,0-1.82-.12,11.85,11.85,0,0,0-1.46,0,17.88,17.88,0,0,0-2.32.24,18.69,18.69,0,0,0-2.56.61l-.22.07-.13-.2a8.13,8.13,0,0,0-2.39-2.39,10,10,0,0,0-2.05-1.08,10.7,10.7,0,0,0-4.33-.72,9.71,9.71,0,0,0-8.65,5.65v.09h-.08a2,2,0,0,0-.44.32,2.16,2.16,0,0,0-.65,1.2,1.94,1.94,0,0,0,0,.76v.14l-.09.11a1.84,1.84,0,0,0-.32.54,2.3,2.3,0,0,0-.11,1.3,2.34,2.34,0,0,0,1,1.42l.24.16-.15.25a1.78,1.78,0,0,0-.21.54,1.89,1.89,0,0,0,0,1,2.28,2.28,0,0,0,.77,1.2,1.39,1.39,0,0,0,.71.42,1.27,1.27,0,0,0,.39,0l.45-.07-.09.44a1,1,0,0,0,0,.49,1.5,1.5,0,0,0,.42.73,2.34,2.34,0,0,0,.66.55,2.22,2.22,0,0,0,1.41.21H154l.09.24a2.64,2.64,0,0,0,.23.44,2.36,2.36,0,0,0,.33.45,1.93,1.93,0,0,0,.75.54,1.56,1.56,0,0,0,.57.1c.15-1,0-1.86.12-2.72A11.74,11.74,0,0,1,156.81,34.54Z" transform="translate(-127.27 -6)"/><path class="cls-8" d="M167.71,71.07a11.94,11.94,0,0,1-1.3-3.55,12.57,12.57,0,0,1,1.14-6.73l.56.26a12,12,0,0,0-1.09,6.4A11.84,11.84,0,0,0,167.71,71.07Z" transform="translate(-127.27 -6)"/><path class="cls-1" d="M178,65.3,171.71,64a1.42,1.42,0,0,0-1.29.37l-4.66,4.47a1.45,1.45,0,0,1-2,0,1.4,1.4,0,0,1-.39-.83l-.71-6.42a1.46,1.46,0,0,0-.76-1.11l-5.69-3a1.44,1.44,0,0,1-.59-2,1.37,1.37,0,0,1,.67-.63l5.91-2.74a1.46,1.46,0,0,0,.82-1.06l1.14-6.36a1.44,1.44,0,0,1,1.69-1.16,1.42,1.42,0,0,1,.8.44L171,48.74a1.39,1.39,0,0,0,1.26.46l6.4-.88a1.44,1.44,0,0,1,1.62,1.22,1.4,1.4,0,0,1-.17.92l-3.19,5.62a1.44,1.44,0,0,0,0,1.34l2.81,5.81a1.44,1.44,0,0,1-.62,2A1.42,1.42,0,0,1,178,65.3Z" transform="translate(-127.27 -6)"/><path class="cls-2" d="M164.76,69.54A1.77,1.77,0,0,1,163,68l-.72-6.42a1.14,1.14,0,0,0-.59-.88l-5.7-3a1.75,1.75,0,0,1,.1-3.15L162,51.87a1.16,1.16,0,0,0,.65-.84l1.14-6.35a1.73,1.73,0,0,1,2-1.42,1.68,1.68,0,0,1,1,.54l4.36,4.74a1.11,1.11,0,0,0,1,.35l6.4-.88a1.74,1.74,0,0,1,1.69.76,1.72,1.72,0,0,1,.07,1.85l-3.16,5.61a1.11,1.11,0,0,0,0,1.06L180,63.1a1.76,1.76,0,0,1-.81,2.34,1.73,1.73,0,0,1-1.12.14l-6.39-1.28a1.09,1.09,0,0,0-1,.29L166,69.07A1.73,1.73,0,0,1,164.76,69.54Zm.76-25.73a1.13,1.13,0,0,0-.32,0,1.11,1.11,0,0,0-.81.89l-1.13,6.35a1.82,1.82,0,0,1-1,1.29l-5.88,2.67a1.12,1.12,0,0,0-.53,1.51,1.2,1.2,0,0,0,.46.49l5.7,3a1.72,1.72,0,0,1,.91,1.35l.72,6.42a1.13,1.13,0,0,0,1.91.69l4.66-4.48a1.8,1.8,0,0,1,1.57-.45l6.33,1.3a1.13,1.13,0,0,0,1.24-1.6l-2.81-5.81a1.77,1.77,0,0,1,.05-1.63l3.18-5.6a1.13,1.13,0,0,0,0-1.2,1.12,1.12,0,0,0-1.1-.48l-6.39.88a1.75,1.75,0,0,1-1.54-.56l-4.35-4.77A1.11,1.11,0,0,0,165.52,43.81Z" transform="translate(-127.27 -6)"/><ellipse class="cls-11" cx="164.88" cy="54.69" rx="2.86" ry="1.53" transform="translate(-33.51 207.17) rotate(-84.18)"/><ellipse class="cls-11" cx="169.43" cy="55.89" rx="0.89" ry="0.48" transform="translate(-30.62 212.79) rotate(-84.18)"/><path class="cls-5" d="M164.15,60.84c.75,1.5.18,3.61-1.8,4.85-.28.17-2.23,1-3.35-.13a5.26,5.26,0,0,1-1.23-1.73,2.77,2.77,0,0,1,1.07-3.76l.31-.14C161.15,58.93,163.38,59.3,164.15,60.84Z" transform="translate(-127.27 -6)"/><path class="cls-8" d="M160.51,66.44a2.41,2.41,0,0,1-1.75-.66h0a5.3,5.3,0,0,1-1.28-1.8,3.05,3.05,0,0,1,1.19-4.15,2.41,2.41,0,0,1,.33-.15c2.17-1.08,4.6-.61,5.42,1h0a4.19,4.19,0,0,1-1.92,5.25A4.49,4.49,0,0,1,160.51,66.44Zm.86-6.75a4.88,4.88,0,0,0-2.12.52,2.45,2.45,0,0,0-1.37,3.2,1.92,1.92,0,0,0,.14.29,5,5,0,0,0,1.13,1.6h0c1,1,2.73.23,3,.08a3.55,3.55,0,0,0,1.7-4.44h0A2.63,2.63,0,0,0,161.37,59.69Z" transform="translate(-127.27 -6)"/><path class="cls-5" d="M187.83,58c-4-.25-7.68-.25-10-.25-2.53,0-4.08.7-4.46,2a3,3,0,0,0,1.74,3.84,21.37,21.37,0,0,0,2.1.5l9,1.24" transform="translate(-127.27 -6)"/><path class="cls-8" d="M186.28,65.13l-9.13-.75a19.73,19.73,0,0,1-2.18-.51,3.3,3.3,0,0,1-1.92-4.22c.3-1,1.37-2.2,4.76-2.2,2.42,0,6.12.5,10.09.74l-.08.13c-3.95-.25-7.6-.25-10-.25s-3.83.63-4.16,1.76a2.69,2.69,0,0,0,1.49,3.47c.66.19,1.32.35,2,.48l9,1.24Z" transform="translate(-127.27 -6)"/><polygon class="cls-8" points="34.46 54.8 34.46 54.8 35.81 53.5 36.17 54 34.46 54.8"/><polygon class="cls-8" points="34.97 55.75 34.97 55.75 36.59 54.74 36.84 55.31 34.97 55.75"/><polygon class="cls-8" points="35.47 56.81 35.47 56.81 37.33 56.12 37.43 56.73 35.47 56.81"/><polygon class="cls-8" points="48.43 53.68 46.54 53.31 46.73 52.72 48.43 53.68 48.43 53.68"/><polygon class="cls-8" points="48.02 54.57 46.04 54.69 46.09 54.07 48.02 54.57 48.02 54.57"/><polygon class="cls-8" points="48.17 55.66 46.38 56.32 46.27 55.72 48.17 55.66 48.17 55.66"/><path class="cls-8" d="M178.53,73.16l-.59-.21a15.8,15.8,0,0,1,1-2.27,8.07,8.07,0,0,1,1.42-2,3.3,3.3,0,0,1,1.95-1.15h0A5.1,5.1,0,0,0,180.7,69a12,12,0,0,0-1.21,2A13.7,13.7,0,0,0,178.53,73.16Z" transform="translate(-127.27 -6)"/><path class="cls-8" d="M179.62,85.19a5.48,5.48,0,0,1-1.15-.13A4.56,4.56,0,0,1,176.05,83a8.43,8.43,0,0,1-1-2.45,8.94,8.94,0,0,1,0-4.36,4.6,4.6,0,0,1,1.33-2.38,3.31,3.31,0,0,1,1.37-.82h0a2.7,2.7,0,0,1,1.49,0,4.22,4.22,0,0,1,1.61.94,6.77,6.77,0,0,1,1.3,1.83,8.52,8.52,0,0,1,.52,2.92h0A8.65,8.65,0,0,0,181.59,76a5.58,5.58,0,0,0-1.15-1.68,3.66,3.66,0,0,0-1.36-.79,2,2,0,0,0-1.17,0h0a2.93,2.93,0,0,0-1.11.67,4,4,0,0,0-1.18,2.12,8.45,8.45,0,0,0,0,4.06,8.16,8.16,0,0,0,.95,2.26,4,4,0,0,0,2.05,1.85,4.79,4.79,0,0,0,1,.11h0A4.88,4.88,0,0,0,182,82.85l-.49,1a2.14,2.14,0,0,1-1.91,1.36h0Z" transform="translate(-127.27 -6)"/><path class="cls-8" d="M159.09,82.23a5.62,5.62,0,0,1-1.16,0,4.54,4.54,0,0,1-2.61-1.93A8.35,8.35,0,0,1,154.06,78a8.9,8.9,0,0,1-.43-4.34,4.54,4.54,0,0,1,1.09-2.5,3.38,3.38,0,0,1,1.28-1h0a2.58,2.58,0,0,1,1.48-.14,4,4,0,0,1,1.7.78,6.44,6.44,0,0,1,1.47,1.69,8.34,8.34,0,0,1,.82,2.85h0a9.06,9.06,0,0,0-1.32-2.45,5.48,5.48,0,0,0-1.31-1.56,3.34,3.34,0,0,0-1.43-.66,2,2,0,0,0-1.16.11h0a2.83,2.83,0,0,0-1,.78,3.91,3.91,0,0,0-.94,2.18,8.25,8.25,0,0,0,.4,4,7.26,7.26,0,0,0,1.17,2.15,4,4,0,0,0,2.21,1.65,5.57,5.57,0,0,0,1,0h0a5,5,0,0,0,2.23-2l-.39,1a2.15,2.15,0,0,1-1.78,1.71h-.06Z" transform="translate(-127.27 -6)"/><ellipse class="cls-12" cx="157.91" cy="77.59" rx="2.26" ry="2.91" transform="translate(-140.46 30.62) rotate(-12.7)"/><ellipse class="cls-12" cx="155.17" cy="74.23" rx="0.63" ry="1.17" transform="translate(-143.43 53.01) rotate(-20.49)"/><ellipse class="cls-12" cx="156.9" cy="73.03" rx="0.63" ry="1.17" transform="translate(-137.02 20.38) rotate(-9.32)"/><ellipse class="cls-12" cx="159.13" cy="72.9" rx="1.17" ry="0.63" transform="translate(-51.98 220.56) rotate(-86)"/><ellipse class="cls-12" cx="178.85" cy="80.42" rx="2.26" ry="2.91" transform="translate(-135.77 16.53) rotate(-7.04)"/><ellipse class="cls-12" cx="179.99" cy="76.15" rx="1.17" ry="0.63" transform="translate(-39.75 242.32) rotate(-84.69)"/><ellipse class="cls-12" cx="178.08" cy="75.67" rx="0.68" ry="1.25" transform="translate(-134.56 14.23) rotate(-6.37)"/><ellipse class="cls-12" cx="176.44" cy="76.94" rx="0.63" ry="1.17" transform="translate(-142.14 49.75) rotate(-17.24)"/></svg>