<svg id="Layer_1" data-name="Layer 1" xmlns="http://www.w3.org/2000/svg" viewBox="0 0 1920 100"><defs><style>.cls-1{fill:#ffeb5c;}.cls-2{fill:#edc82e;}.cls-3{fill:#fffae9;}.cls-4{fill:#e8cf42;}.cls-5{fill:#958e9e;}.cls-6{fill:#c7c5c8;}.cls-7{fill:#888391;}.cls-8{fill:#3d3b44;}.cls-9{fill:#1d1d21;}.cls-10{fill:#2d2c30;}.cls-11{fill:#fff5cc;}.cls-12{fill:#514d59;}</style></defs><path class="cls-1" d="M269.41,71.55c-15.22,22.7-46.23,28.58-69.27,13.13a50.42,50.42,0,0,1-19.29-24.39,50.33,50.33,0,0,0,5.5,4.26c23,15.45,54.05,9.57,69.27-13.13a49.2,49.2,0,0,0,5.14-44.67C279.21,23.13,283.33,50.79,269.41,71.55Z"/><path class="cls-2" d="M228.34,93.62a50.39,50.39,0,0,1-9.85-1A51.24,51.24,0,0,1,180.55,60.4l-.43-1.16.93.82a50.61,50.61,0,0,0,5.48,4.24c22.86,15.32,53.73,9.47,68.83-13a49.14,49.14,0,0,0,5.11-44.39L260,5.7l.93.82a50.68,50.68,0,0,1,16.57,31,49.27,49.27,0,0,1-39.76,55.26A50.86,50.86,0,0,1,228.34,93.62ZM181.58,61.34a50.5,50.5,0,0,0,56.07,30.78,48.49,48.49,0,0,0,31.5-20.74h0c13.37-19.94,10-47-7.68-63.56a50.55,50.55,0,0,1,2.47,21.6,49.47,49.47,0,0,1-8.06,22.18,48.93,48.93,0,0,1-14.1,13.88A49.59,49.59,0,0,1,224,72.6a50.43,50.43,0,0,1-19.28-.09,50.84,50.84,0,0,1-18.52-7.7A50.34,50.34,0,0,1,181.58,61.34Z"/><path class="cls-3" d="M181.42,61.11a16.4,16.4,0,0,0,.87,2c.13.25.35.77.62,1.36.19.43.32.62.37.74a36.09,36.09,0,0,0,2.47,4.21c.53.87.46.78.75,1.24a29.09,29.09,0,0,0,1.86,2.6,52.63,52.63,0,0,0,4.7,5.2c.45.43,1.52,1.43,3,2.6.33.27,1.87,1.5,4.09,3a65.45,65.45,0,0,0,5.7,3.34c.85.44,2.55,1.32,4.46,2.11a44.45,44.45,0,0,0,12,2.84,46.16,46.16,0,0,0,8.55.5,43.73,43.73,0,0,0,9.78-1.61,57.37,57.37,0,0,0,10.28-3.84s11.25-5.73,18.2-16.22c.45-.68.87-1.37.87-1.37a47.42,47.42,0,0,0,4-8.29A48,48,0,0,0,277,48.85a49.49,49.49,0,0,0-.25-11.14,51.6,51.6,0,0,0-4-14.25A49.47,49.47,0,0,0,261.43,7.61a76.85,76.85,0,0,1,6.44,8.55,50,50,0,0,1,2.6,4.33,46.49,46.49,0,0,1,4.21,11.77,50.41,50.41,0,0,1,1.11,6.81,49.14,49.14,0,0,1,.13,6.19,50.54,50.54,0,0,1-3.35,15.36A46.7,46.7,0,0,1,261.92,76.1a57.47,57.47,0,0,1-12.14,9.29,40.08,40.08,0,0,1-9.41,4.21,37.89,37.89,0,0,1-9.91,1.49,45.69,45.69,0,0,1-8.29-.75,55.45,55.45,0,0,1-11-2.47,40.52,40.52,0,0,1-9.9-4.83,48.8,48.8,0,0,1-9.54-7.68c-2.24-2.37-4.11-4.57-5.33-6.07"/><ellipse class="cls-4" cx="215.48" cy="78.33" rx="9.04" ry="5.33"/><ellipse class="cls-4" cx="227.64" cy="77.66" rx="5.33" ry="9.04" transform="translate(81.45 268.66) rotate(-71.41)"/><ellipse class="cls-4" cx="236.16" cy="81.84" rx="9.04" ry="5.33" transform="matrix(1, -0.03, 0.03, 1, -2.69, 8.22)"/><ellipse class="cls-4" cx="243.13" cy="77.07" rx="12.48" ry="7.4" transform="translate(2.58 161.87) rotate(-37.01)"/><path class="cls-4" d="M253.62,75.11a20,20,0,0,0-1.36-16.35L250.16,73Z"/><ellipse class="cls-5" cx="211.89" cy="29.41" rx="9.41" ry="8.67"/><path class="cls-5" d="M211.89,38.7c-5.53,0-10-4.17-10-9.29s4.5-9.29,10-9.29,10,4.17,10,9.29S217.42,38.7,211.89,38.7Zm0-17.34c-4.85,0-8.8,3.61-8.8,8.05s3.95,8.05,8.8,8.05,8.79-3.61,8.79-8S216.74,21.36,211.89,21.36Z"/><circle class="cls-5" cx="204.15" cy="33.31" r="1.92"/><path class="cls-5" d="M204.15,35.85a2.54,2.54,0,1,1,2.54-2.54A2.54,2.54,0,0,1,204.15,35.85Zm0-3.84a1.3,1.3,0,1,0,1.3,1.3A1.3,1.3,0,0,0,204.15,32Z"/><circle class="cls-5" cx="206.25" cy="35.66" r="1.92"/><path class="cls-5" d="M206.25,38.2a2.54,2.54,0,1,1,2.54-2.54A2.54,2.54,0,0,1,206.25,38.2Zm0-3.84a1.3,1.3,0,1,0,1.3,1.3A1.3,1.3,0,0,0,206.25,34.36Z"/><circle class="cls-5" cx="209.1" cy="37.4" r="1.92"/><path class="cls-5" d="M209.1,39.94a2.54,2.54,0,1,1,2.54-2.54A2.54,2.54,0,0,1,209.1,39.94Zm0-3.84a1.3,1.3,0,1,0,1.3,1.3A1.3,1.3,0,0,0,209.1,36.1Z"/><circle class="cls-5" cx="203.28" cy="30.09" r="1.92"/><path class="cls-5" d="M203.28,32.63a2.54,2.54,0,1,1,2.54-2.54A2.54,2.54,0,0,1,203.28,32.63Zm0-3.84a1.3,1.3,0,1,0,1.3,1.3A1.3,1.3,0,0,0,203.28,28.79Z"/><circle class="cls-5" cx="203.77" cy="28.11" r="1.92"/><path class="cls-5" d="M203.77,30.65a2.54,2.54,0,1,1,2.54-2.54A2.54,2.54,0,0,1,203.77,30.65Zm0-3.84a1.3,1.3,0,1,0,1.31,1.3A1.3,1.3,0,0,0,203.77,26.81Z"/><ellipse class="cls-5" cx="239.39" cy="26.81" rx="9.41" ry="8.67" transform="translate(-0.44 49.31) rotate(-11.75)"/><path class="cls-5" d="M239.06,36.13a10.21,10.21,0,0,1-5.26-1.43,8.83,8.83,0,0,1-2.68-12.9A10.64,10.64,0,0,1,245,18.92a8.83,8.83,0,0,1,2.68,12.9,10.71,10.71,0,0,1-8.6,4.31Zm.66-17.4a9.48,9.48,0,0,0-2,.2,9.16,9.16,0,0,0-5.62,3.6,7.66,7.66,0,0,0-1.35,6.07h0a7.69,7.69,0,0,0,3.66,5,9.39,9.39,0,0,0,12.21-2.54A7.57,7.57,0,0,0,244.34,20,8.89,8.89,0,0,0,239.72,18.73Z"/><circle class="cls-5" cx="247.76" cy="29.05" r="1.92"/><path class="cls-5" d="M247.76,31.59a2.56,2.56,0,0,1-1.39-.41,2.5,2.5,0,0,1-1.09-1.61h0a2.54,2.54,0,1,1,4.61.88,2.59,2.59,0,0,1-1.61,1.09A2.29,2.29,0,0,1,247.76,31.59Zm-1.27-2.27a1.31,1.31,0,0,0,1.54,1,1.28,1.28,0,0,0,.82-.56,1.3,1.3,0,1,0-2.36-.45Z"/><circle class="cls-5" cx="246.18" cy="31.79" r="1.92"/><path class="cls-5" d="M246.18,34.33a2.57,2.57,0,0,1-1.39-.42,2.47,2.47,0,0,1-1.09-1.61,2.54,2.54,0,0,1,3.87-2.64,2.57,2.57,0,0,1,1.1,1.61,2.53,2.53,0,0,1-.37,1.91,2.51,2.51,0,0,1-1.6,1.09A2.37,2.37,0,0,1,246.18,34.33Zm0-3.84-.26,0a1.3,1.3,0,1,0,.53,2.55,1.28,1.28,0,0,0,.82-.56,1.3,1.3,0,0,0,.18-1,1.29,1.29,0,0,0-1.27-1Z"/><circle class="cls-5" cx="243.75" cy="34.06" r="1.92"/><path class="cls-5" d="M243.74,36.6a2.52,2.52,0,0,1-2.48-2,2.54,2.54,0,1,1,3,2A2.29,2.29,0,0,1,243.74,36.6Zm0-3.84-.27,0a1.28,1.28,0,0,0-.82.56,1.3,1.3,0,0,0-.19,1h0a1.28,1.28,0,0,0,.56.82,1.3,1.3,0,0,0,1,.19,1.28,1.28,0,0,0,.82-.56,1.3,1.3,0,0,0-1.08-2Z"/><circle class="cls-5" cx="247.96" cy="25.73" r="1.92"/><path class="cls-5" d="M248,28.26a2.52,2.52,0,0,1-2.48-2,2.53,2.53,0,0,1,.36-1.91,2.56,2.56,0,0,1,1.61-1.09,2.53,2.53,0,0,1,1.91.36,2.5,2.5,0,0,1,1.09,1.61,2.53,2.53,0,0,1-2,3A2.29,2.29,0,0,1,248,28.26Zm0-3.84a1.24,1.24,0,0,0-.27,0,1.28,1.28,0,0,0-.82.56,1.3,1.3,0,0,0,1.35,2,1.28,1.28,0,0,0,.82-.56,1.3,1.3,0,0,0,.19-1,1.28,1.28,0,0,0-.56-.82A1.32,1.32,0,0,0,248,24.42Z"/><circle class="cls-5" cx="247.07" cy="23.89" r="1.92"/><path class="cls-5" d="M247.06,26.43a2.56,2.56,0,0,1-2.48-2h0a2.54,2.54,0,0,1,3.88-2.64,2.49,2.49,0,0,1,1.09,1.61,2.53,2.53,0,0,1-2,3A2.24,2.24,0,0,1,247.06,26.43Zm-1.27-2.28a1.31,1.31,0,0,0,1.54,1,1.3,1.3,0,1,0-1.54-1Z"/><path class="cls-6" d="M215,26.27a3.52,3.52,0,0,1,.84,2.29c-.08,1.66-2.21,4.45-3.43,5.25-2,1.28-4.36.68-6-1.64a4.94,4.94,0,0,1,1.44-6.82C210.13,23.75,213.46,24.11,215,26.27Z"/><path class="cls-6" d="M210.23,35.1a5.41,5.41,0,0,1-4.35-2.58,5.23,5.23,0,0,1-.8-4.1,5.8,5.8,0,0,1,2.4-3.58,6.31,6.31,0,0,1,4.29-1.06,5.19,5.19,0,0,1,3.7,2.14h0a4.18,4.18,0,0,1,.95,2.66c-.09,1.89-2.31,4.83-3.71,5.75A4.49,4.49,0,0,1,210.23,35.1ZM211,25a4.9,4.9,0,0,0-2.83.88,4.55,4.55,0,0,0-1.9,2.82,4,4,0,0,0,.61,3.13c1.41,2,3.42,2.6,5.13,1.49,1.11-.73,3.08-3.36,3.15-4.77a2.92,2.92,0,0,0-.73-1.91h0A4.14,4.14,0,0,0,211,25Z"/><path class="cls-6" d="M235.91,23.8a3.52,3.52,0,0,0-.83,2.29c.08,1.66,2.2,4.46,3.43,5.26,2,1.28,4.35.68,6-1.65A4.93,4.93,0,0,0,243,22.88C240.74,21.28,237.42,21.64,235.91,23.8Z"/><path class="cls-6" d="M240.65,32.63a4.49,4.49,0,0,1-2.48-.77c-1.4-.91-3.62-3.85-3.71-5.74a4.09,4.09,0,0,1,.94-2.67h0a5.2,5.2,0,0,1,3.7-2.13,6.23,6.23,0,0,1,4.3,1.06A5.55,5.55,0,0,1,245,30.05,5.38,5.38,0,0,1,240.65,32.63Zm-.8-10.12a4,4,0,0,0-.6,0,4,4,0,0,0-2.83,1.61h0a3,3,0,0,0-.73,1.9c.07,1.41,2.05,4,3.16,4.77,1.7,1.12,3.72.54,5.13-1.48a4.33,4.33,0,0,0-1.29-6A5,5,0,0,0,239.85,22.51Z"/><ellipse class="cls-5" cx="234.06" cy="65.39" rx="18.7" ry="15.91"/><path class="cls-5" d="M234.06,81.92c-10.66,0-19.32-7.42-19.32-16.53s8.66-16.54,19.32-16.54,19.32,7.42,19.32,16.54S244.71,81.92,234.06,81.92Zm0-31.83c-10,0-18.09,6.86-18.09,15.3s8.12,15.29,18.09,15.29,18.08-6.86,18.08-15.29S244,50.09,234.06,50.09Z"/><path class="cls-5" d="M243.34,43a17.29,17.29,0,0,0,0,3.47c.13,1.37.87,3.22,3.35,5.82-.44.62-1.06.85-2.23,1.36-2.73,1.19-7,.2-8.18-3A5.76,5.76,0,0,1,238,44.64C239.33,43.5,243.53,41.91,243.34,43Z"/><path class="cls-5" d="M215,65.82c-1.95.47-3.64,3.94-5.69,8.17-.62,1.28-1.07,2.36-1.37,3.1l3.84,4.34a18.38,18.38,0,0,0,13.5-3.6C222,70.18,217.72,65.17,215,65.82Z"/><path class="cls-5" d="M233.34,67.73c-1.84.79-2.92,4.5-4.22,9-.4,1.36-.66,2.5-.82,3.28l4.52,3.62a18.34,18.34,0,0,0,12.69-5.83C241,70.84,235.93,66.62,233.34,67.73Z"/><path class="cls-5" d="M232.61,84.28l-5-4,.07-.37c.24-1.12.52-2.24.83-3.33,1.38-4.76,2.46-8.51,4.58-9.42h0c1.49-.64,3.56.09,6,2.11A37.53,37.53,0,0,1,246,77.48l.27.41-.33.36a19.24,19.24,0,0,1-6.86,4.68,18.85,18.85,0,0,1-6.26,1.34ZM229,79.79,233,83a17.43,17.43,0,0,0,5.63-1.24,18.11,18.11,0,0,0,6.07-4c-4.79-7.19-9.29-10.24-11.13-9.45-1.58.67-2.7,4.53-3.88,8.62C229.44,77.87,229.2,78.83,229,79.79Z"/><ellipse class="cls-7" cx="210.46" cy="75.91" rx="3.78" ry="5.88" transform="translate(-12.98 64.49) rotate(-16.91)"/><ellipse class="cls-7" cx="231.71" cy="78.69" rx="3.78" ry="5.88" transform="translate(-9.88 39.76) rotate(-9.6)"/><path class="cls-8" d="M211.21,70.46a12.9,12.9,0,0,1,1.36-2.22,31.27,31.27,0,0,1,3-3.1"/><path class="cls-8" d="M211.49,70.59l-.57-.25a14.09,14.09,0,0,1,1.4-2.29,29.82,29.82,0,0,1,2.81-2.94l.2-.19.42.44-.2.19a30.85,30.85,0,0,0-2.74,2.88A13.63,13.63,0,0,0,211.49,70.59Z"/><path class="cls-8" d="M212.16,81.92h-.23l0-.62c.39,0,1.29,0,2.08-.08l.87,0a17.29,17.29,0,0,0,5.11-.85,14.19,14.19,0,0,0,3.52-1.82l.35.51a14.69,14.69,0,0,1-3.67,1.89,17.73,17.73,0,0,1-5.28.89l-.86,0C213.36,81.88,212.62,81.92,212.16,81.92Z"/><path class="cls-8" d="M228.34,81.42q-1-.27-2-.63a10.2,10.2,0,0,1-2.42-1.15c-.65-.45-1.2-2.83-1.5-3.42l.75,1.49a3.31,3.31,0,0,0,1.1,1.42,9.5,9.5,0,0,0,2.29,1.08c.63.23,1.29.44,1.95.61Z"/><path class="cls-8" d="M233.65,84.52l-.06-.62a20.57,20.57,0,0,0,2.93-.48A19.08,19.08,0,0,0,241,81.59l.42-.23a28.74,28.74,0,0,0,4.37-3.09,12.72,12.72,0,0,0,2.41-2.14,4,4,0,0,1,.29-.31,15.67,15.67,0,0,0,3.4-4.61,14.72,14.72,0,0,0,1.21-5.7,14.52,14.52,0,0,0-.73-4.73,16.75,16.75,0,0,0-2.18-4.37,24,24,0,0,0-4-3.91,6.91,6.91,0,0,1-1.43-1.82,10.78,10.78,0,0,1-.93-2.15l-.09-.26a15.61,15.61,0,0,1-.87-5.61l.6.13a15.69,15.69,0,0,0,.86,5.28q0,.12.09.27a9.37,9.37,0,0,0,.88,2A6,6,0,0,0,246.58,52a25,25,0,0,1,4.13,4A17,17,0,0,1,253,60.58a15.15,15.15,0,0,1,.76,4.93,15.33,15.33,0,0,1-1.27,5.94A15.85,15.85,0,0,1,249,76.26a2.84,2.84,0,0,0-.24.26,13,13,0,0,1-2.51,2.24,28.8,28.8,0,0,1-4.46,3.15l-.41.22A19.43,19.43,0,0,1,236.67,84,23.77,23.77,0,0,1,233.65,84.52Z"/><path class="cls-6" d="M235.91,60.5c0,5.81-4.22,9.53-8.67,9.53s-8.05-4.22-8.05-10,3.49-10.16,7.93-10.28c2.85-.08-.91-2.15,6.81,1.49C234.48,51.46,235.91,57.8,235.91,60.5Z"/><path class="cls-6" d="M227.24,70.65a7.94,7.94,0,0,1-6.17-3.06,12,12,0,0,1-2.5-7.59c0-6.08,3.67-10.77,8.53-10.9.69,0,.79-.14.87-.24.43-.52.91-.49,1.61-.26s2,.79,4.62,2c.24.11.69.33,1.53,4.15a31.68,31.68,0,0,1,.8,5.7C236.53,66.85,231.81,70.65,227.24,70.65Zm1.65-21a2.05,2.05,0,0,1-1.75.65c-4.18.11-7.33,4.26-7.33,9.66s3.2,9.41,7.43,9.41c4,0,8-3.33,8-8.91a32.53,32.53,0,0,0-1.73-8.78A41.78,41.78,0,0,0,228.89,49.69Zm4.63,2Z"/><path class="cls-5" d="M243.34,38.14c0,7-6.22,12.78-14.33,13.78,4.84-1.19,8.21-3.88,8.21-7,0-4.24-6.18-7.67-13.8-7.67-6,0-11.08,2.12-13,5.08a11.78,11.78,0,0,1-.77-4.18c0-7.69,7.54-13.93,16.84-13.93S243.34,30.45,243.34,38.14Z"/><path class="cls-5" d="M229.09,52.53l-.23-1.21c4.7-1.16,7.74-3.68,7.74-6.41,0-1.82-1.32-3.55-3.72-4.88a19.85,19.85,0,0,0-9.46-2.17c-5.61,0-10.62,1.92-12.47,4.79l-.66,1-.44-1.14a12.33,12.33,0,0,1-.81-4.4c0-8,7.83-14.55,17.46-14.55S244,30.12,244,38.14a13.24,13.24,0,0,1-4.31,9.58A18.62,18.62,0,0,1,229.09,52.53Zm-5.67-15.91a21.08,21.08,0,0,1,10.06,2.32c2.81,1.57,4.36,3.68,4.36,6a5.79,5.79,0,0,1-1.7,3.92c4-2.46,6.58-6.38,6.58-10.69,0-7.34-7.27-13.31-16.22-13.31s-16.22,6-16.22,13.31a11.22,11.22,0,0,0,.38,2.88C213.11,38.35,218,36.62,223.42,36.62Z"/><path class="cls-5" d="M237.22,44.91c0,3.13-3.37,5.82-8.21,7a20.64,20.64,0,0,1-2.51.15c-7.54,0-13.93-4.1-16.07-9.75,1.91-3,7-5.08,13-5.08C231,37.24,237.22,40.67,237.22,44.91Z"/><path class="cls-5" d="M226.5,52.69a19.66,19.66,0,0,1-10.38-2.85,15,15,0,0,1-6.27-7.31l-.11-.29.17-.26c2.07-3.21,7.5-5.36,13.51-5.36a21.08,21.08,0,0,1,10.06,2.32c2.81,1.57,4.36,3.68,4.36,6,0,3.32-3.41,6.31-8.68,7.61h-.07A20.24,20.24,0,0,1,226.5,52.69Zm-15.37-10.3c2.22,5.44,8.35,9.06,15.37,9.06a19,19,0,0,0,2.4-.14c4.68-1.16,7.7-3.67,7.7-6.4,0-1.82-1.32-3.55-3.72-4.88a19.85,19.85,0,0,0-9.46-2.17C218,37.86,213.1,39.67,211.13,42.39Z"/><path class="cls-5" d="M229,51.92a23.55,23.55,0,0,1-5.59.65c-7.62,0-13.8-3.43-13.8-7.66a4.68,4.68,0,0,1,.81-2.59c2.14,5.65,8.53,9.75,16.07,9.75A20.64,20.64,0,0,0,229,51.92Z"/><path class="cls-5" d="M223.42,53.19a21.08,21.08,0,0,1-10.06-2.32c-2.81-1.56-4.36-3.68-4.36-6a5.37,5.37,0,0,1,.91-2.93l.66-1L211,42.1c2.12,5.59,8.35,9.35,15.49,9.35a19.45,19.45,0,0,0,2.43-.15l.23,1.22A23.82,23.82,0,0,1,223.42,53.19Zm-13-9.4a3.9,3.9,0,0,0-.17,1.12c0,1.81,1.32,3.54,3.72,4.88a18.06,18.06,0,0,0,6.36,2,18.38,18.38,0,0,1-4.2-1.92A15.43,15.43,0,0,1,210.41,43.79Z"/><ellipse class="cls-9" cx="222.23" cy="41.73" rx="1.92" ry="3.9" transform="translate(-1.56 9.4) rotate(-2.42)"/><path class="cls-10" d="M210.9,38.82h0A3.09,3.09,0,0,1,212.44,37a4.81,4.81,0,0,1,2.67-.28,3.79,3.79,0,0,1,2.1,1l-.12.74A5.49,5.49,0,0,0,215,37.7a4.81,4.81,0,0,0-2.07,0A3.59,3.59,0,0,0,210.9,38.82Z"/><path class="cls-10" d="M235.42,38.33h0a3.41,3.41,0,0,0-1.9-1.82,7.08,7.08,0,0,0-3.26-.28,5.1,5.1,0,0,0-2.58,1l.15.74a7.78,7.78,0,0,1,2.62-.75,7.21,7.21,0,0,1,2.54,0A4.76,4.76,0,0,1,235.42,38.33Z"/><path class="cls-8" d="M216.47,26.31a11.74,11.74,0,0,1,3.27-2,11.47,11.47,0,0,1,1.37-.45l.17.6c-.43.13-.87.27-1.32.43A37.2,37.2,0,0,0,216.47,26.31Z"/><path class="cls-8" d="M235.29,25.57c-1-.25-1.23-.37-2.72-.74-.85-.22-1.6-.35-2.43-.56l-.31-.07.15-.6.31.07a22.27,22.27,0,0,1,2.32.68,13.62,13.62,0,0,1,2.44,1.1Z"/><path class="cls-8" d="M223.27,53.58a23.9,23.9,0,0,1-2.69-.15,19.61,19.61,0,0,1-4.27-.88A15.8,15.8,0,0,1,212.9,51a9.7,9.7,0,0,1-3.19-2.82,6.32,6.32,0,0,1-.78-1.56,5.44,5.44,0,0,1-.26-2.1,5.66,5.66,0,0,1,.39-1.71c.1-.23.21-.46.33-.68,0-.05,0-.12,0-.19A11.58,11.58,0,0,0,209,40.6a2.42,2.42,0,0,1-.11-.36v-.05a2.34,2.34,0,0,1-1.83-.85,3,3,0,0,1-.41-.54c-.07-.11-.12-.21-.18-.32a2.85,2.85,0,0,1-1.56-.31,2.93,2.93,0,0,1-.83-.69,2.17,2.17,0,0,1-.57-1,2.09,2.09,0,0,1,0-.35l-.21,0a2.06,2.06,0,0,1-1-.57,3,3,0,0,1-1-1.52,2.87,2.87,0,0,1,0-1.26,2.41,2.41,0,0,1,.16-.45,2.9,2.9,0,0,1-1-1.64,2.83,2.83,0,0,1,.14-1.67,2.46,2.46,0,0,1,.33-.59,2.56,2.56,0,0,1,0-.83A2.87,2.87,0,0,1,201.7,26a3.32,3.32,0,0,1,.47-.37,10.36,10.36,0,0,1,3.54-4.12,10.51,10.51,0,0,1,5.61-1.79,11.46,11.46,0,0,1,4.58.76,11.86,11.86,0,0,1,2.17,1.15,9.46,9.46,0,0,1,1.66,1.41,7.9,7.9,0,0,1,.77,1,18.44,18.44,0,0,1,2.42-.56,19.32,19.32,0,0,1,2.39-.25c.59,0,1,0,1.51,0a15,15,0,0,1,1.89.12c.34.05.69.12,1,.2a11.13,11.13,0,0,1,2.82-3.72,11.26,11.26,0,0,1,3.57-2,11.06,11.06,0,0,1,4.71-.51,11.31,11.31,0,0,1,2.81.64,9.23,9.23,0,0,1,1.79.9A9.41,9.41,0,0,1,247,20.09a12.45,12.45,0,0,1,1,1.08,3.13,3.13,0,0,1,2,2.2,2.44,2.44,0,0,1,0,.27,2.77,2.77,0,0,1,.71,3.1,2.8,2.8,0,0,1-.5.78,2.88,2.88,0,0,1,.38.74,2.73,2.73,0,0,1,0,1.95,2.24,2.24,0,0,1-1.16,1.28,1.6,1.6,0,0,1-.31.1,3.49,3.49,0,0,1-.41,1.75,2.7,2.7,0,0,1-1.84,1.27l-.27,0A2.64,2.64,0,0,1,245,36.69a2.14,2.14,0,0,1-.75.16c0,.35.06.69.07,1a12.81,12.81,0,0,1-.38,3.43A13.19,13.19,0,0,1,242.43,45a13.73,13.73,0,0,1-2.65,3.16,17.57,17.57,0,0,1-5.17,3.28,21.88,21.88,0,0,1-3.88,1.25,30.27,30.27,0,0,1-6.26.88ZM209.66,34.24l.25-.62a28,28,0,0,0-.62,3.34,9.72,9.72,0,0,0,.12,3s.11.35.14.46a10.9,10.9,0,0,1,.41,1.45c0,.14,0,.25.06.32l0,.12-.07.1a5.71,5.71,0,0,0-.35.7,4.87,4.87,0,0,0-.34,1.51,4.94,4.94,0,0,0,.23,1.87,5.55,5.55,0,0,0,.7,1.4,9,9,0,0,0,3,2.64A15.2,15.2,0,0,0,216.5,52a19.44,19.44,0,0,0,4.15.86,24.51,24.51,0,0,0,3.8.12,29.69,29.69,0,0,0,6.13-.86,22,22,0,0,0,3.79-1.22,17.27,17.27,0,0,0,5-3.16,13.42,13.42,0,0,0,2.54-3,12.4,12.4,0,0,0,1.45-3.51,12.8,12.8,0,0,0,.37-3.26c0-.44-.06-.89-.12-1.32l-.07-.41.41,0a1.63,1.63,0,0,0,.83-.1A2.12,2.12,0,0,0,246,34.27l0-.32.32,0a1.48,1.48,0,0,0,.42,0,2.09,2.09,0,0,0,1.38-1,3,3,0,0,0,.33-1.58v-.4l.28,0a1.31,1.31,0,0,0,.4-.1,1.6,1.6,0,0,0,.83-.94,2.2,2.2,0,0,0,0-1.52,2.57,2.57,0,0,0-.44-.77l-.2-.23.23-.2a2.09,2.09,0,0,0,.53-2.38,2.19,2.19,0,0,0-.65-.87l-.13-.1,0-.17a1.5,1.5,0,0,0,0-.3c-.11-1-1.31-1.58-1.67-1.74l-.08,0,0-.06a11,11,0,0,0-1-1.08,8,8,0,0,0-1.44-1.2,8.28,8.28,0,0,0-1.67-.84,10.6,10.6,0,0,0-2.64-.6,10.22,10.22,0,0,0-7.82,2.4A10.53,10.53,0,0,0,230.19,24l-.11.24-.25-.06a9.59,9.59,0,0,0-1.21-.24,13.35,13.35,0,0,0-1.82-.12,14.17,14.17,0,0,0-1.46,0,17.73,17.73,0,0,0-2.32.24,19,19,0,0,0-2.56.61l-.22.07-.13-.2a8.15,8.15,0,0,0-2.39-2.39,10.28,10.28,0,0,0-2.05-1.08,10.8,10.8,0,0,0-4.33-.72A9.73,9.73,0,0,0,202.69,26l0,.09-.08,0a2.36,2.36,0,0,0-.44.32,2.25,2.25,0,0,0-.65,1.2,1.94,1.94,0,0,0,0,.76l0,.14-.09.11a2.08,2.08,0,0,0-.32.54,2.29,2.29,0,0,0-.11,1.3,2.34,2.34,0,0,0,1,1.42l.24.16-.15.25a1.78,1.78,0,0,0-.21.54,2,2,0,0,0,0,1,2.32,2.32,0,0,0,.77,1.2,1.38,1.38,0,0,0,.71.42,1,1,0,0,0,.39,0l.45-.07-.09.44a1,1,0,0,0,0,.49,1.52,1.52,0,0,0,.42.73,2.35,2.35,0,0,0,.66.55,2.2,2.2,0,0,0,1.41.21l.25,0,.09.24a2.64,2.64,0,0,0,.23.44,2.85,2.85,0,0,0,.33.45,1.9,1.9,0,0,0,.75.54,1.56,1.56,0,0,0,.57.1c.15-1,0-1.86.12-2.72A12.37,12.37,0,0,1,209.66,34.24Z"/><path class="cls-8" d="M220.56,70.77a11.79,11.79,0,0,1-1.3-3.55,12.61,12.61,0,0,1,1.14-6.73l.56.26a12.09,12.09,0,0,0-1.09,6.4,12,12,0,0,0,.69,3.62Z"/><path class="cls-1" d="M230.88,65l-6.32-1.3a1.42,1.42,0,0,0-1.29.37l-4.66,4.47a1.45,1.45,0,0,1-2.44-.88l-.71-6.42a1.46,1.46,0,0,0-.76-1.11l-5.69-3a1.44,1.44,0,0,1,.08-2.58L215,51.81a1.44,1.44,0,0,0,.82-1.06l1.14-6.36a1.45,1.45,0,0,1,2.49-.72l4.35,4.77a1.4,1.4,0,0,0,1.26.46l6.4-.88a1.44,1.44,0,0,1,1.45,2.14l-3.19,5.62a1.44,1.44,0,0,0,0,1.34l2.81,5.81A1.45,1.45,0,0,1,230.88,65Z"/><path class="cls-2" d="M217.61,69.24a1.81,1.81,0,0,1-.6-.11,1.74,1.74,0,0,1-1.14-1.45l-.72-6.42a1.14,1.14,0,0,0-.59-.88l-5.7-3a1.76,1.76,0,0,1,.1-3.15l5.89-2.66a1.16,1.16,0,0,0,.65-.84l1.14-6.35a1.74,1.74,0,0,1,3-.88L224,48.24a1.11,1.11,0,0,0,1,.35l6.4-.88a1.74,1.74,0,0,1,1.69.76,1.72,1.72,0,0,1,.07,1.85L230,55.93a1.14,1.14,0,0,0,0,1.06l2.81,5.81a1.75,1.75,0,0,1-1.93,2.48L224.49,64a1.11,1.11,0,0,0-1,.29l-4.66,4.48A1.74,1.74,0,0,1,217.61,69.24Zm.76-25.73a1.13,1.13,0,0,0-.32.05,1.11,1.11,0,0,0-.81.89l-1.13,6.35a1.78,1.78,0,0,1-1,1.29l-5.88,2.67a1.13,1.13,0,0,0-.07,2l5.7,3.05a1.72,1.72,0,0,1,.91,1.35l.72,6.42a1.12,1.12,0,0,0,.74.94,1.1,1.1,0,0,0,1.17-.25l4.66-4.48a1.8,1.8,0,0,1,1.57-.45l6.33,1.3a1.12,1.12,0,0,0,1.24-1.6l-2.81-5.81a1.77,1.77,0,0,1,.05-1.63L232.62,50a1.11,1.11,0,0,0,0-1.2,1.13,1.13,0,0,0-1.1-.48l-6.39.88a1.75,1.75,0,0,1-1.54-.56l-4.35-4.77A1.12,1.12,0,0,0,218.37,43.51Z"/><ellipse class="cls-11" cx="217.74" cy="54.39" rx="2.86" ry="1.53" transform="translate(141.54 265.49) rotate(-84.18)"/><ellipse class="cls-11" cx="222.3" cy="55.6" rx="0.89" ry="0.48" transform="translate(144.43 271.11) rotate(-84.18)"/><path class="cls-5" d="M217,60.54c.75,1.5.18,3.61-1.8,4.85-.28.17-2.23,1-3.35-.13a5.3,5.3,0,0,1-1.23-1.73,2.76,2.76,0,0,1,1.38-3.9C214,58.63,216.23,59,217,60.54Z"/><path class="cls-8" d="M213.36,66.14a2.39,2.39,0,0,1-1.75-.66l0,0a5.36,5.36,0,0,1-1.28-1.8,3.05,3.05,0,0,1,1.52-4.3c2.17-1.08,4.6-.61,5.42,1h0a4.18,4.18,0,0,1-1.92,5.25A4.36,4.36,0,0,1,213.36,66.14Zm.86-6.75a4.86,4.86,0,0,0-2.12.52,2.46,2.46,0,0,0-1.23,3.49A5,5,0,0,0,212,65l0,0c1,1,2.73.23,3,.08a3.54,3.54,0,0,0,1.7-4.44h0A2.64,2.64,0,0,0,214.22,59.39Z"/><path class="cls-5" d="M240.68,57.71c-4-.25-7.68-.25-10-.25-2.53,0-4.08.7-4.46,2a3,3,0,0,0,1.74,3.84,20.16,20.16,0,0,0,2.1.5l9,1.24"/><path class="cls-8" d="M239.13,64.83,230,64.08a18.48,18.48,0,0,1-2.18-.51,3.3,3.3,0,0,1-1.92-4.22c.3-1,1.37-2.2,4.76-2.2,2.42,0,6.12.5,10.09.74l-.08.13c-3.95-.25-7.6-.25-10-.25s-3.83.63-4.16,1.76A2.69,2.69,0,0,0,228,63a19.33,19.33,0,0,0,2,.48l9,1.24Z"/><polygon class="cls-8" points="214.58 60.5 214.58 60.5 215.93 59.2 216.29 59.7 214.58 60.5"/><polygon class="cls-8" points="215.09 61.45 215.09 61.45 216.71 60.44 216.96 61.01 215.09 61.45"/><polygon class="cls-8" points="215.59 62.51 215.59 62.51 217.45 61.82 217.55 62.43 215.59 62.51"/><polygon class="cls-8" points="228.55 59.38 226.66 59.01 226.85 58.42 228.55 59.38 228.55 59.38"/><polygon class="cls-8" points="228.14 60.27 226.16 60.39 226.21 59.77 228.14 60.27 228.14 60.27"/><polygon class="cls-8" points="228.29 61.36 226.5 62.02 226.39 61.42 228.29 61.36 228.29 61.36"/><path class="cls-8" d="M231.38,72.86l-.59-.21a16,16,0,0,1,1-2.27,8.18,8.18,0,0,1,1.42-2,3.37,3.37,0,0,1,1.95-1.15h0a5.24,5.24,0,0,0-1.61,1.49,12.46,12.46,0,0,0-1.21,2A13.77,13.77,0,0,0,231.38,72.86Z"/><path class="cls-8" d="M232.47,84.89a5.24,5.24,0,0,1-1.15-.13,4.52,4.52,0,0,1-2.42-2.11,8.58,8.58,0,0,1-1-2.45,9,9,0,0,1,0-4.36,4.67,4.67,0,0,1,1.33-2.38,3.48,3.48,0,0,1,1.37-.82h0a2.77,2.77,0,0,1,1.49,0,4.17,4.17,0,0,1,1.61.94A6.7,6.7,0,0,1,235,75.41a8.34,8.34,0,0,1,.52,2.92h0a8.57,8.57,0,0,0-1.08-2.65A5.71,5.71,0,0,0,233.29,74a3.54,3.54,0,0,0-1.36-.79,2,2,0,0,0-1.17,0h0a3,3,0,0,0-1.11.67A4.05,4.05,0,0,0,228.47,76a8.42,8.42,0,0,0,0,4.06,8.15,8.15,0,0,0,.95,2.26,4,4,0,0,0,2.05,1.85,4.55,4.55,0,0,0,1,.11h0a4.79,4.79,0,0,0,2.41-1.73l-.49,1a2.13,2.13,0,0,1-1.91,1.36h-.05Z"/><path class="cls-8" d="M211.94,81.93a5.77,5.77,0,0,1-1.16,0A4.54,4.54,0,0,1,208.17,80a8.36,8.36,0,0,1-1.26-2.33,8.88,8.88,0,0,1-.43-4.34,4.61,4.61,0,0,1,1.09-2.5,3.39,3.39,0,0,1,1.28-1h0a2.65,2.65,0,0,1,1.48-.14,4,4,0,0,1,1.7.78,6.29,6.29,0,0,1,1.47,1.69,8.34,8.34,0,0,1,.82,2.85h0A9,9,0,0,0,213,72.56,5.6,5.6,0,0,0,211.69,71a3.34,3.34,0,0,0-1.43-.66,2.06,2.06,0,0,0-1.16.11h0a3,3,0,0,0-1,.78,3.91,3.91,0,0,0-.94,2.18,8.36,8.36,0,0,0,.4,4,7.37,7.37,0,0,0,1.17,2.15,4,4,0,0,0,2.21,1.65,4.87,4.87,0,0,0,1,0h0a4.85,4.85,0,0,0,2.23-2l-.39,1A2.13,2.13,0,0,1,212,81.92h-.05Z"/><ellipse class="cls-12" cx="210.77" cy="77.3" rx="2.26" ry="2.91" transform="translate(-11.84 48.22) rotate(-12.7)"/><ellipse class="cls-12" cx="208.02" cy="73.91" rx="0.63" ry="1.17" transform="translate(-12.71 77.51) rotate(-20.49)"/><ellipse class="cls-12" cx="209.75" cy="72.72" rx="0.63" ry="1.17" transform="translate(-9.01 34.94) rotate(-9.32)"/><ellipse class="cls-12" cx="211.73" cy="73.09" rx="1.17" ry="0.63" transform="matrix(0.07, -1, 1, 0.07, 124.07, 279.22)"/><ellipse class="cls-12" cx="231.7" cy="80.14" rx="2.26" ry="2.91" transform="translate(-8.07 28.98) rotate(-7.04)"/><ellipse class="cls-12" cx="232.82" cy="75.84" rx="1.17" ry="0.63" transform="translate(135.78 300.65) rotate(-84.69)"/><ellipse class="cls-12" cx="230.94" cy="75.38" rx="0.68" ry="1.25" transform="translate(-6.94 26.08) rotate(-6.37)"/><ellipse class="cls-12" cx="229.29" cy="76.65" rx="0.63" ry="1.17" transform="translate(-12.41 71.39) rotate(-17.24)"/></svg>